<svg xmlns="http://www.w3.org/2000/svg" xmlns:xlink="http://www.w3.org/1999/xlink" width="100" height="100" viewBox="0 0 100 100"><g><g transform="translate(50 50) scale(0.69 0.69) rotate(0) translate(-50 -50)" style="fill:#1A1A1A"><svg fill="#1A1A1A" xmlns="http://www.w3.org/2000/svg" xmlns:xlink="http://www.w3.org/1999/xlink" version="1.1" x="0px" y="0px" viewBox="0 0 100 100" style="enable-background:new 0 0 100 100;" xml:space="preserve"><path d="M54,14.5c-0.7,0-1.4,0.1-2,0.3c0-0.1,0-0.2,0-0.3c0-3.9-3.1-7-7-7s-7,3.1-7,7c0,0.1,0,0.2,0,0.3  c-0.6-0.2-1.3-0.3-2-0.3c-3.9,0-7,3.1-7,7c0,0.7,0.1,1.4,0.3,2h13.4h4.6h13.4c0.2-0.6,0.3-1.3,0.3-2C61,17.6,57.9,14.5,54,14.5z   M45,17.5c-1.7,0-3-1.3-3-3s1.3-3,3-3s3,1.3,3,3S46.7,17.5,45,17.5z M22.5,86c-3,0-5.5-2.5-5.5-5.5v-55c0-3,2.5-5.5,5.5-5.5h2.7  c0.3-0.7,0.7-1.4,1.1-2h-4.7c-3.6,0-6.5,2.9-6.5,6.5v57c0,3.6,2.9,6.5,6.5,6.5h29.7c-0.5-0.6-0.9-1.3-1.3-2H22.5z M75,24.5  c0-3.6-2.9-6.5-6.5-6.5h-4.7c0.4,0.6,0.8,1.3,1.1,2h2.7c3,0,5.5,2.5,5.5,5.5v29.6c0.7,0.2,1.3,0.4,2,0.6V24.5z M29.5,38.5  c0,0.8-0.7,1.5-1.5,1.5s-1.5-0.7-1.5-1.5S27.2,37,28,37S29.5,37.7,29.5,38.5z M29.5,49.5c0,0.8-0.7,1.5-1.5,1.5s-1.5-0.7-1.5-1.5  S27.2,48,28,48S29.5,48.7,29.5,49.5z M29.5,60.5c0,0.8-0.7,1.5-1.5,1.5s-1.5-0.7-1.5-1.5S27.2,59,28,59S29.5,59.7,29.5,60.5z   M59.5,40h-25c-0.8,0-1.5-0.7-1.5-1.5l0,0c0-0.8,0.7-1.5,1.5-1.5h25c0.8,0,1.5,0.7,1.5,1.5l0,0C61,39.3,60.3,40,59.5,40z M59.5,51  h-25c-0.8,0-1.5-0.7-1.5-1.5l0,0c0-0.8,0.7-1.5,1.5-1.5h25c0.8,0,1.5,0.7,1.5,1.5l0,0C61,50.3,60.3,51,59.5,51z M47.5,62h-13  c-0.8,0-1.5-0.7-1.5-1.5l0,0c0-0.8,0.7-1.5,1.5-1.5h13c0.8,0,1.5,0.7,1.5,1.5l0,0C49,61.3,48.3,62,47.5,62z M68,58.5  c-9.4,0-17,7.6-17,17s7.6,17,17,17s17-7.6,17-17S77.4,58.5,68,58.5z M77,77.8h-6.8v6.8h-4.5v-6.8H59v-4.5h6.8v-6.8h4.5v6.8H77V77.8z  "></path></svg></g></g></svg>